<?xml version="1.0" encoding="UTF-8" standalone="no"?>
<svg
   height="881.5318"
   viewBox="0.132 0.132 29.336775 10.906757"
   width="2444.7312"
   version="1.1"
   id="svg4"
   sodipodi:docname="engie-logo.svg"
   inkscape:version="1.1.1 (3bf5ae0d25, 2021-09-20)"
   xmlns:inkscape="http://www.inkscape.org/namespaces/inkscape"
   xmlns:sodipodi="http://sodipodi.sourceforge.net/DTD/sodipodi-0.dtd"
   xmlns="http://www.w3.org/2000/svg"
   xmlns:svg="http://www.w3.org/2000/svg">
  <defs
     id="defs8" />
  <sodipodi:namedview
     id="namedview6"
     pagecolor="#ffffff"
     bordercolor="#999999"
     borderopacity="1"
     inkscape:pageshadow="0"
     inkscape:pageopacity="0"
     inkscape:pagecheckerboard="0"
     showgrid="false"
     fit-margin-top="10"
     fit-margin-right="10"
     fit-margin-left="10"
     fit-margin-bottom="10"
     inkscape:zoom="0.2592"
     inkscape:cx="923.99691"
     inkscape:cy="-36.651235"
     inkscape:window-width="1920"
     inkscape:window-height="1001"
     inkscape:window-x="-9"
     inkscape:window-y="-9"
     inkscape:window-maximized="1"
     inkscape:current-layer="svg4" />
  <path
     d="m 29.802231,4.563725 c -4.02,-2.683 -9.264,-4.30799994 -15,-4.30799994 -5.7369998,0 -10.9799998,1.62499994 -14.99999986,4.30799994 3.99800006,-1.328 8.67200006,-2.154 14.99999986,-2.154 6.328,0 11.002,0.826 15,2.154 m -17.3,1.395 c -0.295,0 -0.446,0.238 -0.486,0.532 -0.043,0.322 -0.212,1.442 -0.25,1.726 -0.023,0.171 -0.035,0.349 -0.2,0.422 -0.166,0.073 -0.367,-0.039 -0.538,-0.185 l -2.7099998,-2.308 a 0.765,0.765 0 0 0 -0.505,-0.187 c -0.383,0 -0.753,0.238 -0.753,0.82 v 3.604 c 0,0.282 0.199,0.462 0.436,0.462 0.262,0 0.431,-0.173 0.468,-0.427 0,0 0.279,-1.718 0.313,-1.911 0.04,-0.222 0.075,-0.397 0.29,-0.463 0.195,-0.061 0.379,0.052 0.653,0.292 0.27,0.235 2.5559998,2.301 2.5559998,2.301 0.175,0.148 0.303,0.207 0.551,0.207 0.224,0 0.633,-0.091 0.633,-0.779 v -3.591 c 0,-0.333 -0.207,-0.515 -0.458,-0.515 m 16.358,3.842 c -1.993,0.428 -4.272,-0.03 -4.272,-1.44 0,-1.064 0.988,-1.498 1.766,-1.56 0.816,-0.065 1.454,0.106 1.784,0.447 0.205,0.213 0.147,0.503 -0.255,0.527 -0.371,0.023 -1.068,0.044 -1.647,0.066 -0.33,0.012 -0.505,0.189 -0.505,0.426 0,0.187 0.142,0.402 0.52,0.404 l 2.603,0.013 c 0.452,10e-4 0.674,-0.252 0.674,-0.771 0,-0.823 -0.746,-2.071 -2.927,-2.071 -1.977,0 -3.408,0.985 -3.408,2.594 0,2.282 3.36,2.98 5.82,2.13 0.234,-0.08 0.446,-0.247 0.379,-0.508 -0.06,-0.23 -0.249,-0.318 -0.532,-0.257 m -23.1169998,0 c -1.993,0.428 -4.273,-0.03 -4.273,-1.44 0,-1.064 0.988,-1.498 1.766,-1.56 0.818,-0.065 1.456,0.106 1.784,0.447 0.206,0.213 0.148,0.503 -0.255,0.527 -0.371,0.023 -1.067,0.044 -1.647,0.066 -0.328,0.012 -0.505,0.189 -0.505,0.426 0,0.187 0.142,0.402 0.52,0.404 l 2.605,0.013 c 0.45,10e-4 0.673,-0.252 0.673,-0.771 0,-0.823 -0.745,-2.071 -2.928,-2.071 -1.976,0 -3.40600006,0.985 -3.40600006,2.594 0,2.282 3.36000006,2.98 5.82000006,2.13 0.233,-0.08 0.444,-0.247 0.377,-0.508 -0.06,-0.23 -0.248,-0.318 -0.531,-0.257 m 15.4329998,-2.194 c 0.044,1.244 0.162,2.276 0.194,2.637 0.043,0.467 0.284,0.601 0.526,0.601 0.232,0 0.479,-0.123 0.521,-0.597 0.036,-0.398 0.155,-1.63 0.212,-2.848 0.003,-0.062 -0.04,-0.09 -0.092,-0.08 l -1.297,0.21 c -0.038,0.008 -0.066,0.038 -0.064,0.077 m 0.724,-1.766 c -0.596,0 -0.768,0.466 -0.762,0.753 0,0.054 0.007,0.2 0.016,0.383 0.001,0.041 0.038,0.08 0.088,0.074 l 1.353,-0.22 a 0.076,0.076 0 0 0 0.066,-0.075 c 0.004,-0.063 0.006,-0.129 0.007,-0.16 0.008,-0.274 -0.17,-0.755 -0.769,-0.755 m -1.989,1.985 c -0.451,0 -1.843,0.01 -2.735,0.014 -0.432,0 -0.54,0.233 -0.54,0.425 0,0.167 0.116,0.384 0.52,0.404 0.614,0.032 1.396,0.07 1.757,0.087 0.485,0.025 0.492,0.274 0.328,0.49 -0.33,0.428 -1.133,0.71 -1.966,0.71 -1.088,0 -2.286,-0.62 -2.286,-1.601 0,-0.92 1.026,-1.935 4.071,-1.508 0.267,0.04 0.53,-0.01 0.597,-0.257 0.07,-0.263 -0.1,-0.433 -0.447,-0.524 a 7.342,7.342 0 0 0 -1.92,-0.225 c -2.05,0 -3.694,0.979 -3.694,2.56 0,1.688 1.637,2.514 3.68,2.514 2.279,0 3.39,-1.241 3.39,-2.326 0,-0.552 -0.282,-0.763 -0.754,-0.763"
     fill="#00bdff"
     id="path2" />
</svg>
